<svg xmlns="http://www.w3.org/2000/svg" viewBox="0 0 580 500" width="580" height="500">
  <rect width="580" height="500" rx="12" fill="#0d0d12" stroke="#1e1e2e" stroke-width="1"/>

  <!-- Title -->
  <text x="290" y="26" text-anchor="middle"
        font-family="system-ui, -apple-system, sans-serif"
        fill="#5c5cff" font-size="12" font-weight="700" letter-spacing="4">BREWSKI</text>

  <!-- ─── Box 1: SvelteKit Frontend ─── -->
  <rect x="36" y="36" width="508" height="102" rx="8" fill="#13131c" stroke="#1e1e2e" stroke-width="1"/>
  <text x="56" y="61" font-family="system-ui, -apple-system, sans-serif" fill="#f0f0f5" font-size="13" font-weight="600">SvelteKit Frontend</text>
  <line x1="56" y1="70" x2="524" y2="70" stroke="#1e1e2e" stroke-width="1"/>
  <text x="56" y="85" font-family="system-ui, -apple-system, sans-serif" fill="#888" font-size="11">SvelteKit · Svelte 5 · TypeScript · TailwindCSS 4</text>
  <!-- chips -->
  <rect x="56"  y="93" width="56" height="22" rx="4" fill="#1a1a2a" stroke="#2a2a3e" stroke-width="1"/>
  <text x="84"  y="108" text-anchor="middle" font-family="system-ui, -apple-system, sans-serif" fill="#888" font-size="10">Routes</text>
  <rect x="120" y="93" width="84" height="22" rx="4" fill="#1a1a2a" stroke="#2a2a3e" stroke-width="1"/>
  <text x="162" y="108" text-anchor="middle" font-family="system-ui, -apple-system, sans-serif" fill="#888" font-size="10">Components</text>
  <rect x="212" y="93" width="48" height="22" rx="4" fill="#1a1a2a" stroke="#2a2a3e" stroke-width="1"/>
  <text x="236" y="108" text-anchor="middle" font-family="system-ui, -apple-system, sans-serif" fill="#888" font-size="10">api.ts</text>

  <!-- ─── Arrow 1: tauri.invoke() ─── -->
  <line x1="290" y1="138" x2="290" y2="167" stroke="#5c5cff" stroke-width="1.5" stroke-dasharray="4 3"/>
  <polygon points="290,177 284,167 296,167" fill="#5c5cff"/>
  <rect x="206" y="148" width="168" height="18" rx="3" fill="#0d0d12"/>
  <text x="290" y="161" text-anchor="middle" font-family="system-ui, -apple-system, sans-serif" fill="#5c5cff" font-size="11" font-style="italic">tauri.invoke()</text>

  <!-- ─── Box 2: Command Handlers ─── -->
  <rect x="36" y="177" width="508" height="93" rx="8" fill="#13131c" stroke="#1e1e2e" stroke-width="1"/>
  <text x="56"  y="200" font-family="system-ui, -apple-system, sans-serif" fill="#f0f0f5" font-size="13" font-weight="600">Tauri Command Handlers</text>
  <text x="299" y="200" font-family="system-ui, -apple-system, sans-serif" fill="#555"   font-size="11"> · Rust</text>
  <line x1="56" y1="208" x2="524" y2="208" stroke="#1e1e2e" stroke-width="1"/>
  <text x="56"  y="222" font-family="'SFMono-Regular', Consolas, monospace" fill="#555" font-size="10">src-tauri/src/commands/</text>
  <!-- chips -->
  <rect x="56"  y="230" width="58" height="22" rx="4" fill="#1a1a2a" stroke="#2a2a3e" stroke-width="1"/>
  <text x="85"  y="245" text-anchor="middle" font-family="system-ui, -apple-system, sans-serif" fill="#888" font-size="10">recipes</text>
  <rect x="122" y="230" width="67" height="22" rx="4" fill="#1a1a2a" stroke="#2a2a3e" stroke-width="1"/>
  <text x="155" y="245" text-anchor="middle" font-family="system-ui, -apple-system, sans-serif" fill="#888" font-size="10">additions</text>
  <rect x="197" y="230" width="42" height="22" rx="4" fill="#1a1a2a" stroke="#2a2a3e" stroke-width="1"/>
  <text x="218" y="245" text-anchor="middle" font-family="system-ui, -apple-system, sans-serif" fill="#888" font-size="10">mash</text>
  <rect x="247" y="230" width="68" height="22" rx="4" fill="#1a1a2a" stroke="#2a2a3e" stroke-width="1"/>
  <text x="281" y="245" text-anchor="middle" font-family="system-ui, -apple-system, sans-serif" fill="#888" font-size="10">equipment</text>
  <rect x="323" y="230" width="54" height="22" rx="4" fill="#1a1a2a" stroke="#2a2a3e" stroke-width="1"/>
  <text x="350" y="245" text-anchor="middle" font-family="system-ui, -apple-system, sans-serif" fill="#888" font-size="10">library</text>
  <rect x="385" y="230" width="58" height="22" rx="4" fill="#1a1a2a" stroke="#2a2a3e" stroke-width="1"/>
  <text x="414" y="245" text-anchor="middle" font-family="system-ui, -apple-system, sans-serif" fill="#888" font-size="10">settings</text>

  <!-- ─── Arrow 2 ─── -->
  <line x1="290" y1="270" x2="290" y2="299" stroke="#444" stroke-width="1.5"/>
  <polygon points="290,309 284,299 296,299" fill="#444"/>

  <!-- ─── Box 3: Repository Layer ─── -->
  <rect x="36" y="309" width="508" height="112" rx="8" fill="#13131c" stroke="#1e1e2e" stroke-width="1"/>
  <text x="56"  y="334" font-family="system-ui, -apple-system, sans-serif" fill="#f0f0f5" font-size="13" font-weight="600">Repository Layer</text>
  <text x="231" y="334" font-family="system-ui, -apple-system, sans-serif" fill="#555"   font-size="11"> · Rust</text>
  <line x1="56" y1="342" x2="524" y2="342" stroke="#1e1e2e" stroke-width="1"/>
  <text x="56"  y="356" font-family="'SFMono-Regular', Consolas, monospace" fill="#555" font-size="10">src-tauri/src/repositories/</text>
  <!-- chips row 1 -->
  <rect x="56"  y="364" width="52" height="22" rx="4" fill="#1a1a2a" stroke="#2a2a3e" stroke-width="1"/>
  <text x="82"  y="379" text-anchor="middle" font-family="system-ui, -apple-system, sans-serif" fill="#888" font-size="10">Recipe</text>
  <rect x="116" y="364" width="80" height="22" rx="4" fill="#1a1a2a" stroke="#2a2a3e" stroke-width="1"/>
  <text x="156" y="379" text-anchor="middle" font-family="system-ui, -apple-system, sans-serif" fill="#888" font-size="10">Fermentable</text>
  <rect x="204" y="364" width="38" height="22" rx="4" fill="#1a1a2a" stroke="#2a2a3e" stroke-width="1"/>
  <text x="223" y="379" text-anchor="middle" font-family="system-ui, -apple-system, sans-serif" fill="#888" font-size="10">Hop</text>
  <rect x="250" y="364" width="46" height="22" rx="4" fill="#1a1a2a" stroke="#2a2a3e" stroke-width="1"/>
  <text x="273" y="379" text-anchor="middle" font-family="system-ui, -apple-system, sans-serif" fill="#888" font-size="10">Yeast</text>
  <rect x="304" y="364" width="42" height="22" rx="4" fill="#1a1a2a" stroke="#2a2a3e" stroke-width="1"/>
  <text x="325" y="379" text-anchor="middle" font-family="system-ui, -apple-system, sans-serif" fill="#888" font-size="10">Misc</text>
  <rect x="354" y="364" width="46" height="22" rx="4" fill="#1a1a2a" stroke="#2a2a3e" stroke-width="1"/>
  <text x="377" y="379" text-anchor="middle" font-family="system-ui, -apple-system, sans-serif" fill="#888" font-size="10">Water</text>
  <rect x="408" y="364" width="42" height="22" rx="4" fill="#1a1a2a" stroke="#2a2a3e" stroke-width="1"/>
  <text x="429" y="379" text-anchor="middle" font-family="system-ui, -apple-system, sans-serif" fill="#888" font-size="10">Mash</text>
  <!-- chips row 2 -->
  <rect x="56"  y="392" width="68" height="22" rx="4" fill="#1a1a2a" stroke="#2a2a3e" stroke-width="1"/>
  <text x="90"  y="407" text-anchor="middle" font-family="system-ui, -apple-system, sans-serif" fill="#888" font-size="10">Equipment</text>
  <rect x="132" y="392" width="52" height="22" rx="4" fill="#1a1a2a" stroke="#2a2a3e" stroke-width="1"/>
  <text x="158" y="407" text-anchor="middle" font-family="system-ui, -apple-system, sans-serif" fill="#888" font-size="10">Library</text>
  <rect x="192" y="392" width="56" height="22" rx="4" fill="#1a1a2a" stroke="#2a2a3e" stroke-width="1"/>
  <text x="220" y="407" text-anchor="middle" font-family="system-ui, -apple-system, sans-serif" fill="#888" font-size="10">Settings</text>

  <!-- ─── Arrow 3: SeaORM / sqlx ─── -->
  <line x1="290" y1="421" x2="290" y2="448" stroke="#444" stroke-width="1.5"/>
  <polygon points="290,458 284,448 296,448" fill="#444"/>
  <rect x="215" y="429" width="150" height="16" rx="3" fill="#0d0d12"/>
  <text x="290" y="441" text-anchor="middle" font-family="'SFMono-Regular', Consolas, monospace" fill="#555" font-size="10">SeaORM · sqlx</text>

  <!-- ─── Box 4: SQLite ─── -->
  <rect x="36" y="458" width="508" height="42" rx="8" fill="#13131c" stroke="#1e1e2e" stroke-width="1"/>
  <text x="290" y="474" text-anchor="middle" font-family="system-ui, -apple-system, sans-serif" fill="#f0f0f5" font-size="13" font-weight="600">SQLite</text>
  <text x="290" y="489" text-anchor="middle" font-family="system-ui, -apple-system, sans-serif" fill="#555" font-size="11">embedded · single file</text>
</svg>
